<svg xmlns="http://www.w3.org/2000/svg" width="800" height="800" viewBox="0 0 800 800" fill="none">
  <g transform="translate(50.000 159.249) scale(4.046243)">
<path fill-rule="evenodd" clip-rule="evenodd" d="M68.3512 78.3795C70.1994 75.7783 71.1407 72.869 71.1407 69.7201C71.1407 66.3316 70.0283 63.4052 67.8378 60.9751C65.5959 58.5279 62.7722 57.2786 59.4179 57.2786C56.2348 57.2786 53.548 58.1514 51.4602 59.8456C49.2697 61.6254 48.1573 63.7133 48.1573 66.0578C48.1573 67.5809 48.6365 68.95 49.5606 70.0966C50.2451 70.9523 51.5629 71.962 53.8561 71.962C55.4134 71.962 56.7482 71.4314 57.8093 70.3704C58.8874 69.3094 59.4351 68.043 59.4351 66.6226C59.4351 65.4588 59.0243 64.2951 58.22 63.1314C57.7922 62.4982 57.7408 62.2586 57.7579 62.2244C57.8948 62.1559 58.3056 61.9848 59.3324 61.9848C61.0095 61.9848 62.3443 62.5324 63.4225 63.6619C64.5178 64.8085 65.0483 66.2803 65.0483 68.1114C65.0483 71.3288 63.7819 73.6562 61.1806 75.2135C58.3911 76.9249 53.702 77.7805 47.2845 77.7805C39.3096 77.7805 33.8847 79.2865 30.7187 82.4012C27.5869 85.4816 25.9953 88.9556 25.9953 92.7548C25.9953 95.4759 26.9537 97.8033 28.8704 99.6858C30.77 101.551 33.0632 102.492 35.6987 102.492C37.9748 102.492 39.8744 101.774 41.3461 100.336C42.835 98.8986 43.6051 97.0674 43.6051 94.9111C43.6051 93.2682 43.0917 91.9676 42.0649 90.9921C41.0552 90.0509 39.8744 89.5717 38.5224 89.5717C37.0678 89.5717 35.8014 90.1536 34.8601 91.2831C33.9702 92.3441 33.5253 93.6789 33.5253 95.2363C33.5253 95.3903 33.5424 95.6812 33.5766 96.1091L33.6108 96.5369C33.6108 96.6396 33.5937 96.708 33.5937 96.7594C33.5595 96.7594 33.5082 96.7594 33.4568 96.7594C32.9605 96.7594 32.3958 96.4171 31.8139 95.7497C31.1636 95.0309 30.8556 94.0897 30.8556 92.9088C30.8556 90.821 31.8482 89.1097 33.9018 87.6721C36.1265 86.1148 38.5909 85.3618 41.4317 85.3618C44.94 85.3618 47.6268 86.303 49.629 88.254C51.6142 90.1878 52.5897 92.3954 52.5897 94.9967C52.5897 99.0183 50.5361 102.407 46.2919 105.367C41.9451 108.431 36.6399 109.971 30.4962 109.971C24.0615 109.971 18.6194 108.02 14.3069 104.17C10.0627 100.37 7.90642 96.3315 7.90642 92.1558C7.90642 90.1365 8.53962 88.4422 9.87447 86.9705C11.158 85.5501 12.4244 84.8484 13.7592 84.8484C14.7518 84.8484 15.83 85.3447 16.9594 86.3202C18.5852 87.7064 19.9714 88.3738 21.1865 88.3738C22.7267 88.3738 23.6166 87.6721 24.0958 87.0732C24.7118 86.3031 25.0199 85.4645 25.0199 84.5746C25.0199 82.7777 24.0786 79.7828 17.8151 79.7828C17.5584 79.7828 17.49 79.7315 17.49 79.7315C17.4728 79.7144 17.2333 79.4577 16.7883 78.2939C16.4632 77.4554 16.3091 76.3772 16.3091 75.0937C16.3091 72.2187 17.4728 69.7201 19.8687 67.4611C22.2817 65.1679 24.7632 64.0555 27.4842 64.0555C29.0758 64.0555 30.3935 64.4663 31.4888 65.3048C32.4814 66.0749 32.9434 66.9819 32.9434 68.197C32.9434 69.104 32.7552 70.0281 32.3958 70.918C31.9508 71.9791 31.8653 72.4069 31.8653 72.7663C31.8653 74.1012 32.7723 75.0253 34.0729 75.0253C35.6131 75.0253 37.0164 74.084 38.2315 72.2358C39.3096 70.5929 39.8744 68.7617 39.8744 66.8108C39.8744 64.1411 38.7278 61.8479 36.4517 59.9654C34.2612 58.1514 31.523 57.2444 28.3057 57.2444C25.4819 57.2444 22.7267 58.0145 20.1083 59.5205C17.5242 61.0093 15.385 62.9945 13.7079 65.4246C11.9965 67.9232 11.1238 70.6613 11.1238 73.5877C11.1238 75.6071 11.5516 77.7463 12.4073 79.9882C8.65941 80.8267 5.7159 82.5039 3.62805 84.9853C1.21506 87.8433 0 91.4029 0 95.5614C0 98.9157 0.787219 102.116 2.36166 105.042C3.91898 107.952 6.07528 110.45 8.76209 112.452C11.3976 114.42 14.2213 115.926 17.1477 116.953C20.0912 117.98 23.9417 118.511 28.5966 118.511C34.3296 118.511 39.2925 117.638 43.3142 115.892C47.3872 114.147 50.8954 111.426 53.7534 107.815C56.6627 104.135 58.1344 100.233 58.1344 96.2289C58.1344 92.0532 56.6627 88.4251 53.7363 85.4131C56.8167 85.1222 59.3324 84.6088 61.3175 83.8558C64.1413 82.8119 66.52 80.9636 68.3512 78.3795Z" fill="black"/>
<path fill-rule="evenodd" clip-rule="evenodd" d="M25.3111 0H35.6818V8.3856H43.1604V16.9252H35.6818V32.3444C35.6818 38.2999 37.513 39.515 41.5518 39.515C42.2363 39.515 42.6128 39.515 43.4514 39.4294V48.4311C43.4514 48.4311 41.8427 48.8076 38.9505 48.8076C29.4183 48.8076 25.2255 43.4682 25.2255 32.6354V16.9252H21.0327V8.3856H25.3111V0ZM69.9943 19.0644C62.1393 19.0644 59.23 23.9417 59.23 31.8824V48.2942H48.7052V8.3856H59.0075V15.1796C60.7702 11.2093 64.7234 8.3856 69.9943 8.3856V19.0644ZM75.4535 8.3856V31.4203C75.4535 39.8915 77.9008 49.2697 89.2641 49.2697C94.4495 49.2697 98.2658 46.3604 99.9429 43.6222V48.2771H110.245V8.3856H99.7204V32.3444C99.7204 36.6228 96.9823 39.823 92.6183 39.823C89.0245 39.823 85.9783 37.0678 85.9783 32.6525V8.3856H75.4535ZM115.944 41.8766L122.122 36.3832C124.107 38.6764 126.777 40.73 131.278 40.73C134.255 40.73 136.155 39.4294 136.155 37.1533C136.155 34.7403 133.194 33.6451 129.635 32.3273C124.193 30.3251 117.313 27.7923 117.313 19.2184C117.313 11.8083 123.645 7.39302 131.808 7.39302C139.355 7.39302 143.565 11.3633 145.465 14.4951L138.517 19.6805C137.302 18.1574 135.077 15.8642 131.346 15.8642C128.899 15.8642 127.222 17.0792 127.222 19.0644C127.222 21.5972 130.251 22.624 133.879 23.8733C139.321 25.7386 146.149 28.049 146.149 36.6228C146.149 44.4094 139.441 49.2868 130.816 49.2868C122.961 49.2868 118.066 45.3164 115.944 41.8766ZM165.231 0H154.86V8.3856H150.582V16.9252H154.774V32.6354C154.774 43.4682 158.967 48.8076 168.499 48.8076C171.409 48.8076 173 48.4311 173 48.4311V39.4294C172.162 39.515 171.785 39.515 171.101 39.515C167.062 39.515 165.231 38.2999 165.231 32.3444V16.9252H172.709V8.3856H165.231V0Z" fill="black"/>
<path fill-rule="evenodd" clip-rule="evenodd" d="M154.518 117.963H143.993V62.7893H154.518V117.963ZM102.458 106.36L94.9114 78.0545H84.9856L77.353 106.36L71.1066 81.1863C68.8647 84.1298 66.041 86.269 62.6867 87.5354C62.3958 87.6381 62.1049 87.7407 61.814 87.8434L70.7985 117.946H82.5555L89.9656 92.3785L97.2902 117.946H109.047L121.027 78.0374H109.578L102.458 106.36ZM125.544 117.963H136.069V78.0545H125.544V117.963ZM162.441 117.963H172.966V62.7893H162.441V117.963ZM130.73 74.8543C127.29 74.8543 124.62 72.253 124.62 68.8304C124.62 65.4077 127.29 62.8064 130.73 62.8064C134.238 62.8064 136.908 65.4077 136.908 68.8304C136.908 72.253 134.238 74.8543 130.73 74.8543Z" fill="black"/>
  </g>
</svg>
